<?xml version="1.0" encoding="UTF-8"?>
<svg id="Layer_1" xmlns="http://www.w3.org/2000/svg" version="1.1" viewBox="0 0 206 100">
  <g class="st0">
    <path d="M24.5,43.9h20.1v6.6H14.2v-4.8l19.7-28.4H14.3v-6.6h29.9v4.7l-19.6,28.5Z"/>
    <path d="M63.4,28.6l8.3-17.9h9l-13.1,25.4v14.4h-8.3v-14.4l-13.1-25.4h9l8.2,17.9Z"/>
    <path d="M99.1,35.9h-6.5v14.6h-8.2V10.7h14.8c4.7,0,8.3,1,10.9,3.1,2.6,2.1,3.8,5.1,3.8,8.9s-.6,5-1.8,6.8c-1.2,1.8-3,3.3-5.3,4.3l8.6,16.3v.4h-8.8l-7.5-14.6ZM92.5,29.3h6.6c2.1,0,3.7-.5,4.8-1.6,1.1-1,1.7-2.5,1.7-4.3s-.5-3.4-1.6-4.4c-1.1-1.1-2.7-1.6-4.9-1.6h-6.6v11.9Z"/>
    <path d="M142.6,42.3h-14.4l-2.7,8.2h-8.7l14.8-39.8h7.6l14.9,39.8h-8.7l-2.8-8.2ZM130.4,35.7h10l-5-14.9-4.9,14.9Z"/>
    <path d="M190.2,50.5h-8.2v-17.1h-16v17.1h-8.2V10.7h8.2v16.1h16V10.7h8.2v39.8Z"/>
  </g>
  <g class="st1">
    <path d="M28,63.7l9,21.5,9-21.5h2.7v24.4h-2.1v-10.6l.2-10.9-9.1,21.5h-1.6l-9-21.4.2,10.7v10.7h-2.1v-24.4h2.7Z"/>
    <path d="M68.1,81.2h-11.1l-2.5,6.8h-2.2l9.2-24.4h2l9.2,24.4h-2.1l-2.5-6.8ZM57.7,79.5h9.8l-4.9-13.3-4.9,13.3Z"/>
    <path d="M94.5,88.1h-2.1l-14-20.9v20.9h-2.1v-24.4h2.1l14,20.9v-20.9h2v24.4Z"/>
    <path d="M113.9,81.2h-11.1l-2.5,6.8h-2.2l9.2-24.4h2l9.2,24.4h-2.1l-2.5-6.8ZM103.5,79.5h9.8l-4.9-13.3-4.9,13.3Z"/>
    <path d="M139.8,85.2c-.7,1-1.8,1.8-3.4,2.4s-3.2.9-5.1.9-3.6-.5-5.1-1.4c-1.5-.9-2.6-2.2-3.4-3.9-.8-1.7-1.2-3.6-1.2-5.8v-3.1c0-3.4.9-6.1,2.6-8,1.7-2,4-2.9,6.9-2.9s4.5.6,6.1,1.9c1.5,1.3,2.4,3,2.7,5.3h-2.1c-.3-1.8-1-3.1-2.2-4.1-1.2-.9-2.7-1.4-4.5-1.4s-4.1.8-5.4,2.4c-1.3,1.6-2,3.9-2,6.9v2.9c0,1.9.3,3.5.9,4.9s1.5,2.5,2.7,3.3c1.2.8,2.5,1.2,4.1,1.2s3.3-.3,4.6-.8c.8-.4,1.4-.8,1.8-1.3v-6.3h-6.5v-1.7h8.6v8.7Z"/>
    <path d="M159.1,76.4h-11.4v9.9h13.1v1.7h-15.2v-24.4h15.1v1.7h-13v9.2h11.4v1.7Z"/>
    <path d="M174.2,77.9h-7.1v10.2h-2.1v-24.4h7.9c2.6,0,4.6.6,6.1,1.9,1.5,1.3,2.2,3,2.2,5.3s-.5,2.9-1.4,4.1c-.9,1.2-2.1,2-3.7,2.5l6.1,10.4v.2h-2.2l-5.9-10.2ZM167.1,76.2h6.3c1.7,0,3.1-.5,4.2-1.5s1.6-2.3,1.6-3.8-.5-3.1-1.6-4c-1.1-1-2.6-1.4-4.6-1.4h-5.8v10.7Z"/>
  </g>
</svg>