<?xml version="1.0" encoding="UTF-8"?>
<svg id="Layer_1" xmlns="http://www.w3.org/2000/svg" version="1.1" viewBox="0 0 206 100">
  <g class="st0">
    <path d="M23.5,43.9h20.1v6.6H13.3v-4.8l19.7-28.4H13.3v-6.6h29.9v4.7l-19.6,28.5Z"/>
    <path d="M62.5,28.6l8.3-17.9h9l-13.1,25.4v14.4h-8.3v-14.4l-13.1-25.4h9l8.2,17.9Z"/>
    <path d="M98.1,35.9h-6.5v14.6h-8.2V10.7h14.8c4.7,0,8.3,1,10.9,3.1,2.6,2.1,3.8,5.1,3.8,8.9s-.6,5-1.8,6.8c-1.2,1.8-3,3.3-5.3,4.3l8.6,16.3v.4h-8.8l-7.5-14.6ZM91.6,29.3h6.6c2.1,0,3.7-.5,4.8-1.6,1.1-1,1.7-2.5,1.7-4.3s-.5-3.4-1.6-4.4c-1.1-1.1-2.7-1.6-4.9-1.6h-6.6v11.9Z"/>
    <path d="M141.6,42.3h-14.4l-2.7,8.2h-8.7l14.8-39.8h7.6l14.9,39.8h-8.7l-2.8-8.2ZM129.5,35.7h10l-5-14.9-4.9,14.9Z"/>
    <path d="M189.2,50.5h-8.2v-17.1h-16v17.1h-8.2V10.7h8.2v16.1h16V10.7h8.2v39.8Z"/>
  </g>
  <g class="st1">
    <path d="M69.5,82.1c0-1.4-.5-2.4-1.4-3.2-.9-.8-2.7-1.5-5.2-2.2-2.5-.7-4.4-1.5-5.5-2.3-1.7-1.2-2.5-2.7-2.5-4.7s.8-3.4,2.3-4.5,3.5-1.8,5.9-1.8,3.1.3,4.3.9c1.3.6,2.3,1.5,3,2.6.7,1.1,1.1,2.4,1.1,3.7h-2.1c0-1.7-.6-3-1.7-4-1.1-1-2.7-1.5-4.6-1.5s-3.3.4-4.5,1.2-1.7,1.9-1.7,3.3.5,2.3,1.5,3c1,.8,2.6,1.5,4.8,2.1,2.2.6,3.8,1.2,5,1.9,1.1.6,2,1.4,2.5,2.3.6.9.9,1.9.9,3.2,0,1.9-.8,3.5-2.3,4.6-1.5,1.2-3.6,1.7-6.1,1.7s-3.3-.3-4.7-.9c-1.4-.6-2.5-1.5-3.3-2.6s-1.1-2.4-1.1-3.8h2.1c0,1.7.6,3.1,1.9,4.1,1.3,1,3,1.5,5.1,1.5s3.4-.4,4.6-1.3c1.1-.8,1.7-1.9,1.7-3.3Z"/>
    <path d="M92.5,65.5h-8.4v22.6h-2.1v-22.6h-8.3v-1.7h18.8v1.7Z"/>
    <path d="M108.3,81.2h-11.1l-2.5,6.8h-2.2l9.2-24.4h2l9.2,24.4h-2.1l-2.5-6.8ZM97.9,79.5h9.8l-4.9-13.3-4.9,13.3Z"/>
    <path d="M130,76.7h-11.4v11.4h-2.1v-24.4h15.1v1.7h-13v9.5h11.4v1.7Z"/>
    <path d="M149.3,76.7h-11.4v11.4h-2.1v-24.4h15.1v1.7h-13v9.5h11.4v1.7Z"/>
  </g>
</svg>