<?xml version="1.0" encoding="UTF-8"?>
<svg id="Layer_1" xmlns="http://www.w3.org/2000/svg" version="1.1" viewBox="0 0 101.7 100">
  <!-- Generator: Adobe Illustrator 29.3.1, SVG Export Plug-In . SVG Version: 2.1.0 Build 151)  -->
  <path d="M50.8,11.2c-21.5,0-39,17.4-39,39s17.4,39,39,39,39-17.4,39-39S72.4,11.2,50.8,11.2ZM58.3,79.8c-1.7,1.7-4.5,1.7-6.2,0l-.4-.4c-.6-.6-1.1-1.4-1.2-2.3l-6.4-35.5c-.6-3.5-4.9-4.8-7.4-2.3l-9.4,9.4c-1.7,1.7-4.5,1.7-6.2,0-1.7-1.7-1.7-4.5,0-6.2l21.8-21.8c1.7-1.7,4.5-1.7,6.2,0l.4.4c.6.6,1,1.4,1.2,2.3l8.1,43.7,15.6-15.6c1.7-1.7,4.5-1.7,6.2,0,1.7,1.7,1.7,4.5,0,6.2l-22.3,22.3Z"/>
</svg>