<?xml version="1.0" encoding="UTF-8"?>
<svg id="Layer_1" xmlns="http://www.w3.org/2000/svg" version="1.1" viewBox="0 0 376.3 61.7">
  <!-- Generator: Adobe Illustrator 29.5.1, SVG Export Plug-In . SVG Version: 2.1.0 Build 141)  -->
  <g class="st0">
    <polygon points="42.7 15.7 42.7 11 12.8 11 12.8 17.6 32.5 17.6 12.8 46 12.8 50.8 43.1 50.8 43.1 44.2 23.1 44.2 42.7 15.7"/>
    <polygon points="62 28.9 53.8 11 44.8 11 57.9 36.4 57.9 50.8 66.2 50.8 66.2 36.4 79.3 11 70.3 11 62 28.9"/>
    <path d="M110.6,29.8c1.2-1.8,1.8-3,1.8-6.8s-1.2-6.8-3.8-8.9c-2.6-2.1-6.2-3.1-10.9-3.1h-14.8v39.8h8.2v-14.6h6.5l7.5,14.6h8.8v-.4l-8.6-16.3c2.3-1,4.1-2.5,5.3-4.3ZM102.5,28c-1.1,1.1-2.7,1.6-4.8,1.6h-6.6v-11.9h6.6c2.2,0,3.8.5,4.9,1.6,1.1,1,1.6,2.6,1.6,4.4s-.6,3.3-1.7,4.3Z"/>
    <path d="M130.1,11l-14.8,39.8h8.7l2.7-8.2h14.4l2.8,8.2h8.7l-14.9-39.8h-7.6ZM129.1,36l4.9-14.9,5,14.9h-9.9Z"/>
    <polygon points="180.5 11 180.5 27.1 164.5 27.1 164.5 11 156.3 11 156.3 50.8 164.5 50.8 164.5 33.7 180.5 33.7 180.5 50.8 188.7 50.8 188.7 11 180.5 11"/>
  </g>
  <g class="st1">
    <path d="M234,40.7c0-2.2-.8-3.8-2.2-5.1-1.4-1.3-4.3-2.4-8.3-3.5-4-1.1-7-2.4-8.8-3.7-2.7-1.9-4-4.3-4-7.5s1.3-5.4,3.7-7.2,5.6-2.9,9.4-2.9,4.9.5,6.8,1.4c2.1,1,3.7,2.4,4.8,4.1s1.8,3.8,1.8,5.9h-3.3c0-2.7-1-4.8-2.7-6.4s-4.3-2.4-7.3-2.4-5.3.6-7.2,1.9-2.7,3-2.7,5.3.8,3.7,2.4,4.8c1.6,1.3,4.1,2.4,7.6,3.3,3.5,1,6,1.9,8,3,1.8,1,3.2,2.2,4,3.7,1,1.4,1.4,3,1.4,5.1,0,3-1.3,5.6-3.7,7.3-2.4,1.9-5.7,2.7-9.7,2.7s-5.3-.5-7.5-1.4-4-2.4-5.3-4.1-1.8-3.8-1.8-6h3.3c0,2.7,1,4.9,3,6.5,2.1,1.6,4.8,2.4,8.1,2.4s5.4-.6,7.3-2.1c1.8-1.3,2.7-3,2.7-5.3h0Z"/>
    <path d="M270.6,14.3h-13.4v36h-3.3V14.3h-13.2v-2.7h29.9v2.7Z"/>
    <path d="M295.7,39.3h-17.7l-4,10.8h-3.5l14.6-38.8h3.2l14.6,38.8h-3.3l-4-10.8ZM279.2,36.6h15.6l-7.8-21.2-7.8,21.2Z"/>
    <path d="M330.3,32.1h-18.1v18.1h-3.3V11.4h24v2.7h-20.7v15.1h18.1v2.9Z"/>
    <path d="M361,32.1h-18.1v18.1h-3.3V11.4h24v2.7h-20.7v15.1h18.1v2.9Z"/>
  </g>
</svg>