<?xml version="1.0" encoding="UTF-8"?>
<svg id="Layer_1" xmlns="http://www.w3.org/2000/svg" version="1.1" xmlns:xlink="http://www.w3.org/1999/xlink" viewBox="0 0 80 80">
  <!-- Generator: Adobe Illustrator 29.5.1, SVG Export Plug-In . SVG Version: 2.1.0 Build 141)  -->
  <defs>
    <style>
      .st0 {
        fill: url(#radial-gradient);
      }
    </style>
    <radialGradient id="radial-gradient" cx="40" cy="1038" fx="22.4" fy="1003.2" r="39" gradientTransform="translate(0 -998)" gradientUnits="userSpaceOnUse">
      <stop offset=".5" stop-color="#0671ba"/>
      <stop offset="1" stop-color="#004577"/>
    </radialGradient>
  </defs>
  <path class="st0" d="M42.4,1.1C19.2-.3,0,18.7,1,42c1,20.3,17.8,36.6,38,37,22.2.5,40.3-17.4,39.9-39.6S62.6,2.3,42.4,1.1ZM47.5,69.6c-1.7,1.7-4.5,1.7-6.2,0l-.4-.4c-.6-.6-1.1-1.4-1.2-2.3l-6.4-35.5c-.6-3.5-4.9-4.8-7.4-2.3l-9.2,9.2c-1.5,1.5-3.9,1.9-5.6.7s-2.6-4.9-.7-6.8l21.7-21.7c1.7-1.7,4.6-1.7,6.3,0l.3.3c.6.6,1,1.4,1.2,2.3l6.6,36c.6,3.3,4.6,4.5,7,2.2l9.9-9.9c1.5-1.5,3.9-1.9,5.6-.7s2.6,4.9.7,6.8l-22.3,22.3s0-.2,0-.2Z"/>
</svg>