<?xml version="1.0" encoding="UTF-8"?>
<svg id="AppLogoS" xmlns="http://www.w3.org/2000/svg" version="1.1" viewBox="0 0 206 111.5">
  <path id="AppLogoSymbol" d="M104.6,9.6c-15.2-.9-27.8,11.5-27,26.7.7,13.2,11.6,23.9,24.9,24.2s26.3-11.4,26.1-25.9c-.2-13.2-10.7-24.2-23.9-25ZM107.9,54.3c-1.1,1.1-2.9,1.1-4.1,0l-.3-.3c-.4-.4-.7-.9-.8-1.5l-4.2-23.2c-.4-2.3-3.2-3.1-4.8-1.5l-6,6c-1,1-2.5,1.2-3.7.5s-1.7-3.2-.5-4.4l14.2-14.2c1.1-1.1,3-1.1,4.1,0l.2.2c.4.4.7.9.8,1.5l4.3,23.5c.4,2.1,3,3,4.6,1.4l6.5-6.5c1-1,2.5-1.2,3.7-.5s1.7,3.2.5,4.4l-14.6,14.6s0-.1,0-.1Z"/>
</svg>