<?xml version="1.0" encoding="UTF-8"?>
<svg id="AppLogoM" xmlns="http://www.w3.org/2000/svg" version="1.1" viewBox="0 0 68.3 66.7">
  <!-- Generator: Adobe Illustrator 29.5.1, SVG Export Plug-In . SVG Version: 2.1.0 Build 141)  -->
  <path id="AppLogoSymbol" d="M35.7,7.9c-15.2-.9-27.8,11.5-27,26.7.7,13.2,11.6,23.9,24.9,24.2,13.3.3,26.3-11.4,26.1-25.9-.2-13.2-10.7-24.2-23.9-25,0,0,0,0,0,0ZM39,52.6c-1.1,1.1-2.9,1.1-4.1,0l-.3-.3c-.4-.4-.7-.9-.8-1.5l-4.2-23.2c-.4-2.3-3.2-3.1-4.8-1.5l-6,6c-1,1-2.5,1.2-3.7.5s-1.7-3.2-.5-4.4l14.2-14.2c1.1-1.1,3-1.1,4.1,0l.2.2c.4.4.7.9.8,1.5l4.3,23.5c.4,2.1,3,3,4.6,1.4l6.5-6.5c1-1,2.5-1.2,3.7-.5s1.7,3.2.5,4.4l-14.6,14.6h0s0,0,0,0Z"/>
</svg>