<?xml version="1.0" encoding="UTF-8"?>
<svg id="ManagerLogo" xmlns="http://www.w3.org/2000/svg" version="1.1" viewBox="0 0 206 111.5">
  <g id="AppLogoLabel">
    <path d="M28,71.9l9,21.5,9-21.5h2.7v24.4h-2.1v-10.6l.2-10.9-9.1,21.5h-1.6l-9-21.4.2,10.7v10.7h-2.1v-24.4h2.8,0Z"/>
    <path d="M68.1,89.4h-11.1l-2.5,6.8h-2.2l9.2-24.4h2l9.2,24.4h-2.1l-2.5-6.8ZM57.7,87.7h9.8l-4.9-13.3s-4.9,13.3-4.9,13.3Z"/>
    <path d="M94.5,96.3h-2.1l-14-20.9v20.9h-2.1v-24.4h2.1l14,20.9v-20.9h2v24.4h0Z"/>
    <path d="M113.9,89.4h-11.1l-2.5,6.8h-2.2l9.2-24.4h2l9.2,24.4h-2.1l-2.5-6.8ZM103.5,87.7h9.8l-4.9-13.3-4.9,13.3Z"/>
    <path d="M139.8,93.4c-.7,1-1.8,1.8-3.4,2.4s-3.2.9-5.1.9-3.6-.5-5.1-1.4-2.6-2.2-3.4-3.9c-.8-1.7-1.2-3.6-1.2-5.8v-3.1c0-3.4.9-6.1,2.6-8,1.7-2,4-2.9,6.9-2.9s4.5.6,6.1,1.9c1.5,1.3,2.4,3,2.7,5.3h-2.1c-.3-1.8-1-3.1-2.2-4.1-1.2-.9-2.7-1.4-4.5-1.4s-4.1.8-5.4,2.4-2,3.9-2,6.9v2.9c0,1.9.3,3.5.9,4.9s1.5,2.5,2.7,3.3,2.5,1.2,4.1,1.2,3.3-.3,4.6-.8c.8-.4,1.4-.8,1.8-1.3v-6.3h-6.5v-1.7h8.6v8.7h-.1Z"/>
    <path d="M159.1,84.6h-11.4v9.9h13.1v1.7h-15.2v-24.4h15.1v1.7h-13v9.2h11.4v1.9h0Z"/>
    <path d="M174.2,86.1h-7.1v10.2h-2.1v-24.4h7.9c2.6,0,4.6.6,6.1,1.9s2.2,3,2.2,5.3-.5,2.9-1.4,4.1-2.1,2-3.7,2.5l6.1,10.4v.2h-2.2l-5.9-10.2h0ZM167.1,84.4h6.3c1.7,0,3.1-.5,4.2-1.5s1.6-2.3,1.6-3.8-.5-3.1-1.6-4c-1.1-1-2.6-1.4-4.6-1.4h-5.8v10.7h0Z"/>
  </g>
  <path id="AppLogoSymbol" d="M104.6,9.6c-15.2-.9-27.8,11.5-27,26.7.7,13.2,11.6,23.9,24.9,24.2s26.3-11.4,26.1-25.9c-.2-13.2-10.7-24.2-23.9-25ZM107.9,54.3c-1.1,1.1-2.9,1.1-4.1,0l-.3-.3c-.4-.4-.7-.9-.8-1.5l-4.2-23.2c-.4-2.3-3.2-3.1-4.8-1.5l-6,6c-1,1-2.5,1.2-3.7.5s-1.7-3.2-.5-4.4l14.2-14.2c1.1-1.1,3-1.1,4.1,0l.2.2c.4.4.7.9.8,1.5l4.3,23.5c.4,2.1,3,3,4.6,1.4l6.5-6.5c1-1,2.5-1.2,3.7-.5s1.7,3.2.5,4.4l-14.6,14.6s0-.1,0-.1Z"/>
</svg>