<?xml version="1.0" encoding="UTF-8"?>
<svg id="StaffLogo" xmlns="http://www.w3.org/2000/svg" version="1.1" viewBox="0 0 257.1 61.7">
  <g id="AppLogoLabel">
    <path d="M115.8,40.9c0-2.2-.8-3.8-2.2-5.1s-4.3-2.4-8.3-3.5c-4-1.1-7-2.4-8.8-3.7-2.7-1.9-4-4.3-4-7.5s1.3-5.4,3.7-7.2,5.6-2.9,9.4-2.9,4.9.5,6.8,1.4c2.1,1,3.7,2.4,4.8,4.1s1.8,3.8,1.8,5.9h-3.3c0-2.7-1-4.8-2.7-6.4s-4.3-2.4-7.3-2.4-5.3.6-7.2,1.9-2.7,3-2.7,5.3.8,3.7,2.4,4.8c1.6,1.3,4.1,2.4,7.6,3.3,3.5,1,6,1.9,8,3,1.8,1,3.2,2.2,4,3.7,1,1.4,1.4,3,1.4,5.1,0,3-1.3,5.6-3.7,7.3-2.4,1.9-5.7,2.7-9.7,2.7s-5.3-.5-7.5-1.4-4-2.4-5.3-4.1-1.8-3.8-1.8-6h3.3c0,2.7,1,4.9,3,6.5,2.1,1.6,4.8,2.4,8.1,2.4s5.4-.6,7.3-2.1c1.8-1.3,2.7-3,2.7-5.3h0s.2.2.2.2Z"/>
    <path d="M152.4,14.5h-13.4v36h-3.3V14.5h-13.2v-2.7h29.9v2.7Z"/>
    <path d="M177.5,39.5h-17.7l-4,10.8h-3.5l14.6-38.8h3.2l14.6,38.8h-3.3l-4-10.8h0ZM161,36.8h15.6l-7.8-21.2-7.8,21.2h0Z"/>
    <path d="M212.1,32.3h-18.1v18.1h-3.3V11.6h24v2.7h-20.7v15.1h18.1s0,2.9,0,2.9Z"/>
    <path d="M242.8,32.3h-18.1v18.1h-3.3V11.6h24v2.7h-20.7v15.1h18.1s0,2.9,0,2.9Z"/>
  </g>
  <path id="AppLogoSymbol" d="M39.9,5.4c-15.2-.9-27.8,11.5-27,26.7.7,13.2,11.6,23.9,24.9,24.2s26.3-11.4,26.1-25.9S53.1,6.2,39.9,5.4ZM43.2,50.2c-1.1,1.1-2.9,1.1-4.1,0l-.3-.3c-.4-.4-.7-.9-.8-1.5l-4.2-23.2c-.4-2.3-3.2-3.1-4.8-1.5l-6,6c-1,1-2.5,1.2-3.7.5s-1.7-3.2-.5-4.4l14.2-14.2c1.1-1.1,3-1.1,4.1,0l.2.2c.4.4.7.9.8,1.5l4.3,23.5c.4,2.1,3,3,4.6,1.4l6.5-6.5c1-1,2.5-1.2,3.7-.5s1.7,3.2.5,4.4l-14.6,14.6s0-.1,0-.1Z"/>
</svg>